<svg id="_1" data-name="1" xmlns="http://www.w3.org/2000/svg" xmlns:xlink="http://www.w3.org/1999/xlink" viewBox="0 0 1080 1080"><defs><style>.cls-1{fill:url(#Namnlös_övertoning_64);}.cls-2{fill:url(#Namnlös_övertoning_55);}.cls-3{fill:url(#Namnlös_övertoning_63);}.cls-4{fill:#262e60;}</style><linearGradient id="Namnlös_övertoning_64" x1="430.86" y1="444.97" x2="544.85" y2="603.87" gradientUnits="userSpaceOnUse"><stop offset="0" stop-color="#35bde6"/><stop offset="1" stop-color="#324a9a"/></linearGradient><linearGradient id="Namnlös_övertoning_55" x1="410.95" y1="444.66" x2="559.7" y2="571.61" gradientUnits="userSpaceOnUse"><stop offset="0.4" stop-color="#38beef" stop-opacity="0"/><stop offset="0.67" stop-color="#38beef" stop-opacity="0.3"/><stop offset="0.9" stop-color="#1d2044" stop-opacity="0.7"/></linearGradient><linearGradient id="Namnlös_övertoning_63" x1="549.26" y1="469.91" x2="726.23" y2="515.62" xlink:href="#Namnlös_övertoning_64"/></defs><title>Full bottom</title><path class="cls-1" d="M452.12,576H401.17L475.59,400H522.3L596.72,576h-52m0,0-46.2-118.38L452.12,576Z"/><path class="cls-2" d="M452.12,576H401.17L475.59,400H522.3L596.72,576h-52m0,0-46.2-118.38L452.12,576Z"/><path class="cls-3" d="M544.43,540.82l87.66-98.65H547.43v-41H699v35.22l-87.67,98.65H699v41H544.43Z"/><path class="cls-4" d="M199.2,590.18h19.86a24.6,24.6,0,0,1,8.22,1.2,14.06,14.06,0,0,1,5.46,3.36q3.72,3.6,3.72,9.78v.12a13.21,13.21,0,0,1-2.34,8,14.8,14.8,0,0,1-6.3,4.86l10,14.64H224.4l-8.46-12.72h-5.1v12.72H199.2Zm19.32,20.16a7,7,0,0,0,4.62-1.35,4.48,4.48,0,0,0,1.62-3.63v-.12a4.34,4.34,0,0,0-1.68-3.75,7.68,7.68,0,0,0-4.62-1.23h-7.62v10.08Z"/><path class="cls-4" d="M257.76,633a19.31,19.31,0,0,1-7-1.23,16.56,16.56,0,0,1-5.49-3.42,15.23,15.23,0,0,1-3.6-5.31,17.89,17.89,0,0,1-1.29-6.9V616a18,18,0,0,1,1.2-6.63A16.21,16.21,0,0,1,245,604a15.88,15.88,0,0,1,5.19-3.63,16.21,16.21,0,0,1,6.6-1.32,17.12,17.12,0,0,1,7.29,1.44,14.39,14.39,0,0,1,5.1,3.87,16.26,16.26,0,0,1,3,5.64,23,23,0,0,1,1,6.81v1.14q0,.6-.06,1.2H251.34a6.64,6.64,0,0,0,2.49,4,7.54,7.54,0,0,0,4.53,1.32,8.93,8.93,0,0,0,3.75-.78,12.09,12.09,0,0,0,3.45-2.52l6.3,5.22a17.53,17.53,0,0,1-5.79,4.8A17.77,17.77,0,0,1,257.76,633Zm4.68-19.68a7.28,7.28,0,0,0-1.8-4.29,5,5,0,0,0-3.84-1.59,4.77,4.77,0,0,0-3.72,1.59,8.44,8.44,0,0,0-1.92,4.29Z"/><path class="cls-4" d="M290.88,632.9a27.83,27.83,0,0,1-8-1.17,24.44,24.44,0,0,1-7.32-3.63l4.26-6.9a23.12,23.12,0,0,0,5.73,2.79,17.9,17.9,0,0,0,5.43.93q2.88,0,2.88-1.74v-.12q0-1-1.32-1.5a38.84,38.84,0,0,0-3.9-1.26,38.34,38.34,0,0,1-4.5-1.41,15,15,0,0,1-3.66-2,8.12,8.12,0,0,1-3.36-7v-.12a10.26,10.26,0,0,1,1-4.59,9.41,9.41,0,0,1,2.73-3.36,12.51,12.51,0,0,1,4.11-2.07,17.74,17.74,0,0,1,5.19-.72,25.81,25.81,0,0,1,7.08,1,23.81,23.81,0,0,1,6.3,2.79l-3.9,7.2a28.5,28.5,0,0,0-5.1-2.19A15.34,15.34,0,0,0,290,607a3.54,3.54,0,0,0-2,.45,1.29,1.29,0,0,0-.66,1.11v.12q0,1,1.35,1.53t3.93,1.35q2.38.66,4.5,1.47a15.34,15.34,0,0,1,3.66,2,8.61,8.61,0,0,1,2.46,2.85,8.4,8.4,0,0,1,.9,4V622a11,11,0,0,1-1,4.71,9.49,9.49,0,0,1-2.7,3.39,11.88,11.88,0,0,1-4.2,2.07A20.06,20.06,0,0,1,290.88,632.9Z"/><path class="cls-4" d="M325.38,633a18.91,18.91,0,0,1-7.17-1.32,17.49,17.49,0,0,1-5.68-3.63,16.29,16.29,0,0,1-5-11.91V616a16.22,16.22,0,0,1,1.34-6.57,16.85,16.85,0,0,1,3.75-5.4,17.89,17.89,0,0,1,5.7-3.66,19.82,19.82,0,0,1,14.38,0,18.32,18.32,0,0,1,5.66,3.63,16.06,16.06,0,0,1,3.72,5.34,16.34,16.34,0,0,1,1.33,6.54V616a16.24,16.24,0,0,1-1.36,6.57,16.54,16.54,0,0,1-3.75,5.4,17.89,17.89,0,0,1-5.7,3.66A18.82,18.82,0,0,1,325.38,633Zm.12-9.72a6.72,6.72,0,0,0,2.81-.57,6.14,6.14,0,0,0,2.13-1.54,7.13,7.13,0,0,0,1.35-2.3,7.85,7.85,0,0,0,.48-2.73V616a7.65,7.65,0,0,0-.51-2.8,7,7,0,0,0-1.44-2.29,7.27,7.27,0,0,0-2.19-1.58,6.46,6.46,0,0,0-2.75-.59,7,7,0,0,0-2.83.56,6.3,6.3,0,0,0-2.13,1.55,7.19,7.19,0,0,0-1.35,2.29,7.94,7.94,0,0,0-.48,2.74V616a7.69,7.69,0,0,0,.51,2.8,7.06,7.06,0,0,0,1.44,2.29,7.32,7.32,0,0,0,2.19,1.57A6.35,6.35,0,0,0,325.5,623.24Z"/><path class="cls-4" d="M359,632.9c-3.49,0-6.22-1.06-8.17-3.18s-2.93-5-2.93-8.76V599.72h11.46V617.3a5.91,5.91,0,0,0,1.25,4.08,4.24,4.24,0,0,0,3.32,1.38,4.45,4.45,0,0,0,3.34-1.38,5.65,5.65,0,0,0,1.33-4.08V599.72h11.46v32.46H368.63v-4.44a15.83,15.83,0,0,1-3.85,3.6A10,10,0,0,1,359,632.9Z"/><path class="cls-4" d="M386.21,599.72h11.46v6.54a13.38,13.38,0,0,1,3.78-5.28,9.2,9.2,0,0,1,6.48-1.8v12h-1q-4.5,0-6.9,2.64t-2.4,8.28v10.08H386.21Z"/><path class="cls-4" d="M427.55,633a16.81,16.81,0,0,1-17-16.86V616a16.67,16.67,0,0,1,10.35-15.57,18,18,0,0,1,7.05-1.35,16.32,16.32,0,0,1,8.4,2,16,16,0,0,1,5.46,5.28l-7.74,5.76a10.2,10.2,0,0,0-2.58-2.52,6.25,6.25,0,0,0-3.48-.9,5.74,5.74,0,0,0-2.55.57,6.13,6.13,0,0,0-2,1.56,7.57,7.57,0,0,0-1.32,2.28,7.94,7.94,0,0,0-.48,2.79V616a8.62,8.62,0,0,0,.48,2.91,7.42,7.42,0,0,0,1.32,2.34,6,6,0,0,0,4.68,2.13,6.28,6.28,0,0,0,3.45-.9,13.46,13.46,0,0,0,2.79-2.46l7.62,5.52a17.91,17.91,0,0,1-5.7,5.4A16.9,16.9,0,0,1,427.55,633Z"/><path class="cls-4" d="M462.11,633a19.31,19.31,0,0,1-7-1.23,16.56,16.56,0,0,1-5.49-3.42A15.23,15.23,0,0,1,446,623a17.89,17.89,0,0,1-1.29-6.9V616a18.15,18.15,0,0,1,1.2-6.63,16.37,16.37,0,0,1,3.39-5.4,15.88,15.88,0,0,1,5.19-3.63,16.21,16.21,0,0,1,6.6-1.32,17.12,17.12,0,0,1,7.29,1.44,14.39,14.39,0,0,1,5.1,3.87,16.26,16.26,0,0,1,3,5.64,23,23,0,0,1,1,6.81v1.14q0,.6-.06,1.2H455.69a6.69,6.69,0,0,0,2.49,4,7.54,7.54,0,0,0,4.53,1.32,8.93,8.93,0,0,0,3.75-.78,12.09,12.09,0,0,0,3.45-2.52l6.3,5.22a17.53,17.53,0,0,1-5.79,4.8A17.77,17.77,0,0,1,462.11,633Zm4.68-19.68A7.21,7.21,0,0,0,465,609a5,5,0,0,0-3.84-1.59,4.79,4.79,0,0,0-3.72,1.59,8.44,8.44,0,0,0-1.92,4.29Z"/><path class="cls-4" d="M495.23,632.9a27.83,27.83,0,0,1-8-1.17,24.55,24.55,0,0,1-7.32-3.63l4.26-6.9a23.29,23.29,0,0,0,5.73,2.79,17.9,17.9,0,0,0,5.43.93q2.88,0,2.88-1.74v-.12q0-1-1.32-1.5a38,38,0,0,0-3.9-1.26,38.34,38.34,0,0,1-4.5-1.41,15.15,15.15,0,0,1-3.66-2,8.12,8.12,0,0,1-3.36-7v-.12a10.26,10.26,0,0,1,1-4.59,9.51,9.51,0,0,1,2.73-3.36,12.61,12.61,0,0,1,4.11-2.07,17.79,17.79,0,0,1,5.19-.72,25.75,25.75,0,0,1,7.08,1,23.67,23.67,0,0,1,6.3,2.79l-3.9,7.2a28.2,28.2,0,0,0-5.1-2.19,15.34,15.34,0,0,0-4.5-.81,3.54,3.54,0,0,0-2,.45,1.32,1.32,0,0,0-.66,1.11v.12q0,1,1.35,1.53T497,611.6q2.4.66,4.5,1.47a15.15,15.15,0,0,1,3.66,2,8.61,8.61,0,0,1,2.46,2.85,8.4,8.4,0,0,1,.9,4V622a10.82,10.82,0,0,1-1,4.71,9.49,9.49,0,0,1-2.7,3.39,11.8,11.8,0,0,1-4.2,2.07A20,20,0,0,1,495.23,632.9Z"/><path class="cls-4" d="M531.83,608.84h-3.78V599.9h3.78v-.72q0-5.64,2.76-8.4a8.74,8.74,0,0,1,3.54-2.16,16.09,16.09,0,0,1,4.92-.66,32.3,32.3,0,0,1,4.35.24,20.37,20.37,0,0,1,3.09.66v8a18.81,18.81,0,0,0-2-.48,12.8,12.8,0,0,0-2.22-.18q-3.24,0-3.24,3.06v.78h7.44v8.76h-7.26v23.34H531.83Z"/><path class="cls-4" d="M570.59,633a19,19,0,0,1-7.17-1.32,17.55,17.55,0,0,1-5.67-3.63,16.35,16.35,0,0,1-5-11.91V616a16.23,16.23,0,0,1,1.35-6.57,16.69,16.69,0,0,1,3.75-5.4,17.89,17.89,0,0,1,5.7-3.66,18.84,18.84,0,0,1,7.2-1.35,18.61,18.61,0,0,1,7.17,1.35,18.25,18.25,0,0,1,5.67,3.63,16.06,16.06,0,0,1,3.72,5.34,16.33,16.33,0,0,1,1.32,6.54V616a16.23,16.23,0,0,1-1.35,6.57,16.69,16.69,0,0,1-3.75,5.4,17.89,17.89,0,0,1-5.7,3.66A18.84,18.84,0,0,1,570.59,633Zm.12-9.72a6.77,6.77,0,0,0,2.82-.57,6.14,6.14,0,0,0,2.13-1.54,7.13,7.13,0,0,0,1.35-2.3,7.85,7.85,0,0,0,.48-2.73V616a7.65,7.65,0,0,0-.51-2.8,7,7,0,0,0-1.44-2.29,7.4,7.4,0,0,0-2.19-1.58,6.48,6.48,0,0,0-2.76-.59,6.92,6.92,0,0,0-2.82.56,6.3,6.3,0,0,0-2.13,1.55,7.19,7.19,0,0,0-1.35,2.29,7.94,7.94,0,0,0-.48,2.74V616a7.69,7.69,0,0,0,.51,2.8,7.06,7.06,0,0,0,1.44,2.29,7.19,7.19,0,0,0,2.19,1.57A6.34,6.34,0,0,0,570.71,623.24Z"/><path class="cls-4" d="M593.39,599.72h11.46v6.54a13.38,13.38,0,0,1,3.78-5.28,9.2,9.2,0,0,1,6.48-1.8v12h-1q-4.5,0-6.9,2.64t-2.4,8.28v10.08H593.39Z"/><path class="cls-4" d="M652.85,632.9a32.77,32.77,0,0,1-10.71-1.75,26.07,26.07,0,0,1-9-5.25l6.48-7.76a21.38,21.38,0,0,0,13.62,5,6.93,6.93,0,0,0,3.57-.75,2.36,2.36,0,0,0,1.23-2.13v-.12a2.25,2.25,0,0,0-.3-1.16,3.06,3.06,0,0,0-1.11-1,11.38,11.38,0,0,0-2.16-.93q-1.35-.45-3.51-.93-3.36-.78-6.24-1.71a18.77,18.77,0,0,1-5-2.39,10.22,10.22,0,0,1-4.59-9.08v-.11a13,13,0,0,1,1.11-5.4,12,12,0,0,1,3.24-4.25,15.23,15.23,0,0,1,5.13-2.78,21.58,21.58,0,0,1,6.78-1,30.1,30.1,0,0,1,9.63,1.42,24.18,24.18,0,0,1,7.65,4.19l-5.82,8.25a23.59,23.59,0,0,0-5.91-3.09,17.83,17.83,0,0,0-5.85-1.05A5.26,5.26,0,0,0,648,600a2.32,2.32,0,0,0-1.05,1.91V602a2.37,2.37,0,0,0,.33,1.26,3,3,0,0,0,1.14,1,12.59,12.59,0,0,0,2.22.9q1.41.45,3.57.93a51.2,51.2,0,0,1,6.51,1.82,19.47,19.47,0,0,1,5,2.55,10.17,10.17,0,0,1,3.12,3.62,11.07,11.07,0,0,1,1.08,5.06v.12A12.89,12.89,0,0,1,668.6,625a12.36,12.36,0,0,1-3.45,4.29,15.78,15.78,0,0,1-5.34,2.69A24.32,24.32,0,0,1,652.85,632.9Z"/><path class="cls-4" d="M687.77,632.84q-5.19,0-8.09-2.46t-2.89-8.28V608.9H673v-9.18h3.84V591.5h11.46v8.22h7.56v9.18h-7.56v11a3.35,3.35,0,0,0,.78,2.49,3.26,3.26,0,0,0,2.34.75,8.26,8.26,0,0,0,2.22-.3,13.26,13.26,0,0,0,2.1-.78V631a15.71,15.71,0,0,1-3.54,1.35A17.55,17.55,0,0,1,687.77,632.84Z"/><path class="cls-4" d="M711.53,632.9q-5.25,0-8.18-3.18T700.43,621V599.72h11.46V617.3a5.91,5.91,0,0,0,1.24,4.08,4.26,4.26,0,0,0,3.32,1.38,4.43,4.43,0,0,0,3.34-1.38,5.65,5.65,0,0,0,1.34-4.08V599.72h11.46v32.46H721.13v-4.44a16,16,0,0,1-3.85,3.6A10.05,10.05,0,0,1,711.53,632.9Z"/><path class="cls-4" d="M751.85,632.9a13.27,13.27,0,0,1-5.49-1.17,13.56,13.56,0,0,1-4.56-3.33,16.34,16.34,0,0,1-3.12-5.28,19.88,19.88,0,0,1-1.17-7V616a21,21,0,0,1,1.13-7.11,16,16,0,0,1,3.12-5.34,13.64,13.64,0,0,1,4.55-3.36,13,13,0,0,1,5.44-1.17,11.45,11.45,0,0,1,6,1.41,16.6,16.6,0,0,1,4,3.27v-15.3h11.46v43.8H761.69l.06-4.32a17.68,17.68,0,0,1-4,3.54A10.63,10.63,0,0,1,751.85,632.9Zm3.45-9.54a6.2,6.2,0,0,0,2.57-.54,6.38,6.38,0,0,0,2.09-1.53,7.4,7.4,0,0,0,1.4-2.34,8.34,8.34,0,0,0,.51-3v-.12a8.1,8.1,0,0,0-.51-2.94,7.48,7.48,0,0,0-1.4-2.31,6.38,6.38,0,0,0-2.09-1.53,6.39,6.39,0,0,0-5.14,0,6.48,6.48,0,0,0-2.09,1.5,7.1,7.1,0,0,0-1.43,2.31,7.93,7.93,0,0,0-.54,3V616a7.93,7.93,0,0,0,.54,3,7.47,7.47,0,0,0,1.43,2.34,6.28,6.28,0,0,0,2.09,1.53A6.17,6.17,0,0,0,755.3,623.36Z"/><path class="cls-4" d="M795.35,633a19.31,19.31,0,0,1-7-1.23,16.56,16.56,0,0,1-5.49-3.42,15.23,15.23,0,0,1-3.6-5.31,17.89,17.89,0,0,1-1.29-6.9V616a18.15,18.15,0,0,1,1.2-6.63,16.37,16.37,0,0,1,3.39-5.4,15.88,15.88,0,0,1,5.19-3.63,16.21,16.21,0,0,1,6.6-1.32,17.12,17.12,0,0,1,7.29,1.44,14.39,14.39,0,0,1,5.1,3.87,16.26,16.26,0,0,1,3,5.64,23,23,0,0,1,1,6.81v1.14q0,.6-.06,1.2H788.93a6.69,6.69,0,0,0,2.49,4,7.54,7.54,0,0,0,4.53,1.32,8.93,8.93,0,0,0,3.75-.78,12.09,12.09,0,0,0,3.45-2.52l6.3,5.22a17.53,17.53,0,0,1-5.79,4.8A17.77,17.77,0,0,1,795.35,633ZM800,613.28a7.21,7.21,0,0,0-1.8-4.29,5,5,0,0,0-3.84-1.59,4.79,4.79,0,0,0-3.72,1.59,8.44,8.44,0,0,0-1.92,4.29Z"/><path class="cls-4" d="M815.57,599.72H827v4.56a18.45,18.45,0,0,1,1.72-2,11,11,0,0,1,2.13-1.68,11.91,11.91,0,0,1,2.61-1.17,10.31,10.31,0,0,1,3.14-.45q5.25,0,8.17,3.18t2.93,8.76v21.24H836.27V614.6a5.91,5.91,0,0,0-1.25-4.08,4.17,4.17,0,0,0-3.26-1.38,4.52,4.52,0,0,0-3.4,1.38A5.65,5.65,0,0,0,827,614.6v17.58H815.57Z"/><path class="cls-4" d="M866.56,632.84q-5.19,0-8.08-2.46t-2.89-8.28V608.9h-3.84v-9.18h3.84V591.5h11.46v8.22h7.56v9.18h-7.56v11a3.35,3.35,0,0,0,.78,2.49,3.26,3.26,0,0,0,2.34.75,8.31,8.31,0,0,0,2.22-.3,13.26,13.26,0,0,0,2.1-.78V631a15.71,15.71,0,0,1-3.54,1.35A17.64,17.64,0,0,1,866.56,632.84Z"/><path class="cls-4" d="M892.37,632.9a27.83,27.83,0,0,1-8-1.17A24.55,24.55,0,0,1,877,628.1l4.26-6.9A23.29,23.29,0,0,0,887,624a17.9,17.9,0,0,0,5.43.93q2.88,0,2.88-1.74v-.12q0-1-1.32-1.5a38,38,0,0,0-3.9-1.26,38.34,38.34,0,0,1-4.5-1.41,15.15,15.15,0,0,1-3.66-2,8.12,8.12,0,0,1-3.36-7v-.12a10.26,10.26,0,0,1,1-4.59,9.51,9.51,0,0,1,2.73-3.36,12.61,12.61,0,0,1,4.11-2.07,17.79,17.79,0,0,1,5.19-.72,25.75,25.75,0,0,1,7.08,1,23.67,23.67,0,0,1,6.3,2.79l-3.9,7.2a28.2,28.2,0,0,0-5.1-2.19,15.34,15.34,0,0,0-4.5-.81,3.54,3.54,0,0,0-2,.45,1.32,1.32,0,0,0-.66,1.11v.12q0,1,1.35,1.53t3.93,1.35q2.4.66,4.5,1.47a15.15,15.15,0,0,1,3.66,2,8.61,8.61,0,0,1,2.46,2.85,8.4,8.4,0,0,1,.9,4V622a10.82,10.82,0,0,1-1,4.71,9.49,9.49,0,0,1-2.7,3.39,11.8,11.8,0,0,1-4.2,2.07A20,20,0,0,1,892.37,632.9Z"/></svg>