<svg xmlns="http://www.w3.org/2000/svg" xmlns:xlink="http://www.w3.org/1999/xlink" viewBox="0 0 1080 1080"><defs><style>.cls-1{fill:#262e60;}.cls-2{fill:url(#Namnlös_övertoning_64);}.cls-3{fill:url(#Namnlös_övertoning_55);}.cls-4{fill:url(#Namnlös_övertoning_63);}</style><linearGradient id="Namnlös_övertoning_64" x1="79.13" y1="453.54" x2="158.9" y2="564.73" gradientUnits="userSpaceOnUse"><stop offset="0" stop-color="#35bde6"/><stop offset="1" stop-color="#324a9a"/></linearGradient><linearGradient id="Namnlös_övertoning_55" x1="65.2" y1="453.32" x2="169.29" y2="542.16" gradientUnits="userSpaceOnUse"><stop offset="0.4" stop-color="#38beef" stop-opacity="0"/><stop offset="0.67" stop-color="#38beef" stop-opacity="0.3"/><stop offset="0.9" stop-color="#1d2044" stop-opacity="0.7"/></linearGradient><linearGradient id="Namnlös_övertoning_63" x1="161.99" y1="470.99" x2="285.83" y2="502.97" xlink:href="#Namnlös_övertoning_64"/></defs><title>Full side</title><g id="_2" data-name="2"><path class="cls-1" d="M297.08,461.84h19.86a24.58,24.58,0,0,1,8.21,1.2,14.06,14.06,0,0,1,5.46,3.36q3.72,3.6,3.72,9.77v.13a13.2,13.2,0,0,1-2.33,8,14.83,14.83,0,0,1-6.31,4.86l10,14.64H322.27l-8.46-12.72h-5.1v12.72H297.08ZM316.4,482a7,7,0,0,0,4.62-1.35,4.47,4.47,0,0,0,1.61-3.63v-.12a4.36,4.36,0,0,0-1.67-3.75,7.73,7.73,0,0,0-4.63-1.23h-7.62V482Z"/><path class="cls-1" d="M355.63,504.62a19.31,19.31,0,0,1-7-1.24,16.38,16.38,0,0,1-5.49-3.41,15.23,15.23,0,0,1-3.6-5.31,17.89,17.89,0,0,1-1.29-6.9v-.13a18.14,18.14,0,0,1,1.2-6.62,16.37,16.37,0,0,1,3.39-5.4A15.88,15.88,0,0,1,348,472a16.21,16.21,0,0,1,6.6-1.32,17.12,17.12,0,0,1,7.29,1.43A14.41,14.41,0,0,1,367,476a16.26,16.26,0,0,1,3,5.64,23,23,0,0,1,1,6.81v1.14q0,.6-.06,1.2H349.21a6.69,6.69,0,0,0,2.49,4,7.54,7.54,0,0,0,4.53,1.31,8.92,8.92,0,0,0,3.75-.77,12.09,12.09,0,0,0,3.45-2.52l6.3,5.22a17.53,17.53,0,0,1-5.79,4.8A17.77,17.77,0,0,1,355.63,504.62Zm4.68-19.68a7.19,7.19,0,0,0-1.8-4.29,5,5,0,0,0-3.84-1.59,4.79,4.79,0,0,0-3.72,1.59,8.4,8.4,0,0,0-1.92,4.29Z"/><path class="cls-1" d="M388.75,504.56a27.5,27.5,0,0,1-8-1.18,24.29,24.29,0,0,1-7.32-3.62l4.26-6.9a23.29,23.29,0,0,0,5.73,2.79,17.9,17.9,0,0,0,5.43.93q2.88,0,2.88-1.74v-.12q0-1-1.32-1.5a38,38,0,0,0-3.9-1.26,38.34,38.34,0,0,1-4.5-1.41,15.5,15.5,0,0,1-3.66-2,8.12,8.12,0,0,1-3.36-7v-.12a10.26,10.26,0,0,1,1-4.59,9.51,9.51,0,0,1,2.73-3.36,12.61,12.61,0,0,1,4.11-2.07,17.79,17.79,0,0,1,5.19-.72,25.75,25.75,0,0,1,7.08,1,23.67,23.67,0,0,1,6.3,2.79l-3.9,7.2a28.2,28.2,0,0,0-5.1-2.19,15.34,15.34,0,0,0-4.5-.81,3.45,3.45,0,0,0-2,.45,1.32,1.32,0,0,0-.66,1.11v.12q0,1,1.35,1.53t3.93,1.35q2.4.66,4.5,1.47a14.81,14.81,0,0,1,3.66,2,8.61,8.61,0,0,1,2.46,2.85,8.4,8.4,0,0,1,.9,4v.12a10.82,10.82,0,0,1-1,4.71,9.49,9.49,0,0,1-2.7,3.39,11.8,11.8,0,0,1-4.2,2.07A20.35,20.35,0,0,1,388.75,504.56Z"/><path class="cls-1" d="M423.25,504.62a19.18,19.18,0,0,1-7.17-1.32,17.55,17.55,0,0,1-5.67-3.63,16.35,16.35,0,0,1-5-11.91v-.13a16.22,16.22,0,0,1,1.35-6.56,16.69,16.69,0,0,1,3.75-5.4,17.89,17.89,0,0,1,5.7-3.66,18.84,18.84,0,0,1,7.2-1.35,18.61,18.61,0,0,1,7.17,1.35,18.41,18.41,0,0,1,5.67,3.62,16.26,16.26,0,0,1,5,11.89v.11a16.24,16.24,0,0,1-1.35,6.58,16.69,16.69,0,0,1-3.75,5.4,17.89,17.89,0,0,1-5.7,3.66A18.84,18.84,0,0,1,423.25,504.62Zm.12-9.72a6.77,6.77,0,0,0,2.82-.57,6.17,6.17,0,0,0,2.13-1.55,7.08,7.08,0,0,0,1.35-2.29,7.86,7.86,0,0,0,.48-2.74v-.12a7.6,7.6,0,0,0-.51-2.79,7,7,0,0,0-1.44-2.29A7.22,7.22,0,0,0,426,481a6.33,6.33,0,0,0-2.76-.59,6.76,6.76,0,0,0-2.82.56,6.17,6.17,0,0,0-2.13,1.55,7.08,7.08,0,0,0-1.35,2.29,7.86,7.86,0,0,0-.48,2.74v.11a7.61,7.61,0,0,0,.51,2.8,6.85,6.85,0,0,0,1.44,2.29,7.22,7.22,0,0,0,2.19,1.58A6.34,6.34,0,0,0,423.37,494.9Z"/><path class="cls-1" d="M456.91,504.56q-5.25,0-8.17-3.18t-2.93-8.76V471.38h11.46V489a5.91,5.91,0,0,0,1.25,4.08,4.24,4.24,0,0,0,3.31,1.38,4.46,4.46,0,0,0,3.35-1.38,5.65,5.65,0,0,0,1.33-4.08V471.38H478v32.46H466.51V499.4a15.83,15.83,0,0,1-3.85,3.6A10.05,10.05,0,0,1,456.91,504.56Z"/><path class="cls-1" d="M484.09,471.38h11.46v6.54a13.49,13.49,0,0,1,3.78-5.29,9.25,9.25,0,0,1,6.48-1.79v12h-1q-4.5,0-6.9,2.64t-2.4,8.28v10.08H484.09Z"/><path class="cls-1" d="M525.43,504.62a16.89,16.89,0,0,1-6.78-1.35,16.81,16.81,0,0,1-10.2-15.51v-.13a16.67,16.67,0,0,1,10.35-15.56,18,18,0,0,1,7.05-1.35,16.32,16.32,0,0,1,8.4,2,16,16,0,0,1,5.46,5.28L532,483.74a10.2,10.2,0,0,0-2.58-2.52,6.25,6.25,0,0,0-3.48-.9,5.88,5.88,0,0,0-2.55.56,6.29,6.29,0,0,0-2,1.57,7.57,7.57,0,0,0-1.32,2.28,7.94,7.94,0,0,0-.48,2.79v.11a8.64,8.64,0,0,0,.48,2.92,7.26,7.26,0,0,0,1.32,2.33,5.94,5.94,0,0,0,2,1.57A6.07,6.07,0,0,0,526,495a6.28,6.28,0,0,0,3.45-.9,13.46,13.46,0,0,0,2.79-2.46l7.62,5.51a17.83,17.83,0,0,1-5.7,5.41A17,17,0,0,1,525.43,504.62Z"/><path class="cls-1" d="M560,504.62a19.31,19.31,0,0,1-7-1.24,16.38,16.38,0,0,1-5.49-3.41,15.23,15.23,0,0,1-3.6-5.31,17.89,17.89,0,0,1-1.29-6.9v-.13a18.14,18.14,0,0,1,1.2-6.62,16.37,16.37,0,0,1,3.39-5.4,15.88,15.88,0,0,1,5.19-3.63,16.21,16.21,0,0,1,6.6-1.32,17.12,17.12,0,0,1,7.29,1.43,14.41,14.41,0,0,1,5.1,3.88,16.26,16.26,0,0,1,3,5.64,23,23,0,0,1,1,6.81v1.14q0,.6-.06,1.2H553.57a6.69,6.69,0,0,0,2.49,4,7.54,7.54,0,0,0,4.53,1.31,8.92,8.92,0,0,0,3.75-.77,12.09,12.09,0,0,0,3.45-2.52l6.3,5.22a17.53,17.53,0,0,1-5.79,4.8A17.77,17.77,0,0,1,560,504.62Zm4.68-19.68a7.19,7.19,0,0,0-1.8-4.29,5,5,0,0,0-3.84-1.59,4.79,4.79,0,0,0-3.72,1.59,8.4,8.4,0,0,0-1.92,4.29Z"/><path class="cls-1" d="M593.11,504.56a27.5,27.5,0,0,1-8-1.18,24.29,24.29,0,0,1-7.32-3.62l4.26-6.9a23.29,23.29,0,0,0,5.73,2.79,17.9,17.9,0,0,0,5.43.93q2.88,0,2.88-1.74v-.12q0-1-1.32-1.5a38,38,0,0,0-3.9-1.26,38.34,38.34,0,0,1-4.5-1.41,15.5,15.5,0,0,1-3.66-2,8.12,8.12,0,0,1-3.36-7v-.12a10.26,10.26,0,0,1,1-4.59,9.51,9.51,0,0,1,2.73-3.36,12.61,12.61,0,0,1,4.11-2.07,17.79,17.79,0,0,1,5.19-.72,25.75,25.75,0,0,1,7.08,1,23.67,23.67,0,0,1,6.3,2.79l-3.9,7.2a28.2,28.2,0,0,0-5.1-2.19,15.34,15.34,0,0,0-4.5-.81,3.45,3.45,0,0,0-2,.45,1.32,1.32,0,0,0-.66,1.11v.12q0,1,1.35,1.53t3.93,1.35q2.4.66,4.5,1.47a14.81,14.81,0,0,1,3.66,2,8.61,8.61,0,0,1,2.46,2.85,8.4,8.4,0,0,1,.9,4v.12a10.82,10.82,0,0,1-1,4.71,9.49,9.49,0,0,1-2.7,3.39,11.8,11.8,0,0,1-4.2,2.07A20.35,20.35,0,0,1,593.11,504.56Z"/><path class="cls-1" d="M629.71,480.5h-3.78v-8.94h3.78v-.72q0-5.64,2.76-8.4a8.74,8.74,0,0,1,3.54-2.16,16.09,16.09,0,0,1,4.92-.66,32.3,32.3,0,0,1,4.35.24,20.37,20.37,0,0,1,3.09.66v8a18.81,18.81,0,0,0-2-.48,12.8,12.8,0,0,0-2.22-.18q-3.24,0-3.24,3.06v.78h7.44v8.76h-7.26v23.34H629.71Z"/><path class="cls-1" d="M668.47,504.62a19.18,19.18,0,0,1-7.17-1.32,17.55,17.55,0,0,1-5.67-3.63,16.35,16.35,0,0,1-5-11.91v-.13a16.22,16.22,0,0,1,1.35-6.56,16.69,16.69,0,0,1,3.75-5.4,17.89,17.89,0,0,1,5.7-3.66,18.84,18.84,0,0,1,7.2-1.35,18.61,18.61,0,0,1,7.17,1.35,18.41,18.41,0,0,1,5.67,3.62,16.26,16.26,0,0,1,5,11.89v.11a16.24,16.24,0,0,1-1.35,6.58,16.69,16.69,0,0,1-3.75,5.4,17.89,17.89,0,0,1-5.7,3.66A18.84,18.84,0,0,1,668.47,504.62Zm.12-9.72a6.77,6.77,0,0,0,2.82-.57,6.17,6.17,0,0,0,2.13-1.55,7.08,7.08,0,0,0,1.35-2.29,7.86,7.86,0,0,0,.48-2.74v-.12a7.6,7.6,0,0,0-.51-2.79,7,7,0,0,0-1.44-2.29,7.22,7.22,0,0,0-2.19-1.58,6.33,6.33,0,0,0-2.76-.59,6.76,6.76,0,0,0-2.82.56,6.17,6.17,0,0,0-2.13,1.55,7.08,7.08,0,0,0-1.35,2.29,7.86,7.86,0,0,0-.48,2.74v.11a7.61,7.61,0,0,0,.51,2.8,6.85,6.85,0,0,0,1.44,2.29,7.22,7.22,0,0,0,2.19,1.58A6.34,6.34,0,0,0,668.59,494.9Z"/><path class="cls-1" d="M691.27,471.38h11.46v6.54a13.49,13.49,0,0,1,3.78-5.29,9.25,9.25,0,0,1,6.48-1.79v12h-1q-4.5,0-6.9,2.64t-2.4,8.28v10.08H691.27Z"/><path class="cls-1" d="M750.73,504.56A32.51,32.51,0,0,1,740,502.8a25.76,25.76,0,0,1-9-5.25l6.48-7.75a21.38,21.38,0,0,0,13.62,5,6.93,6.93,0,0,0,3.57-.75A2.36,2.36,0,0,0,756,492v-.12a2.26,2.26,0,0,0-.3-1.17,3.06,3.06,0,0,0-1.11-1,12.12,12.12,0,0,0-2.16-.92q-1.35-.45-3.51-.93-3.36-.78-6.24-1.71a19.1,19.1,0,0,1-5-2.4,10.75,10.75,0,0,1-3.36-3.65,10.92,10.92,0,0,1-1.23-5.42v-.12a13,13,0,0,1,1.11-5.39,11.94,11.94,0,0,1,3.24-4.25,15.25,15.25,0,0,1,5.13-2.79,21.88,21.88,0,0,1,6.78-1,30.39,30.39,0,0,1,9.63,1.41,24.4,24.4,0,0,1,7.65,4.2L760.75,475a24,24,0,0,0-5.91-3.1,18.07,18.07,0,0,0-5.85-1,5.26,5.26,0,0,0-3.15.77,2.32,2.32,0,0,0-1.05,1.92v.12a2.37,2.37,0,0,0,.33,1.26,3,3,0,0,0,1.14,1,12.59,12.59,0,0,0,2.22.9c.94.29,2.13.6,3.57.92a51.15,51.15,0,0,1,6.51,1.83,19.47,19.47,0,0,1,5,2.55,10.09,10.09,0,0,1,3.12,3.62,11,11,0,0,1,1.08,5.06v.12a12.92,12.92,0,0,1-1.23,5.75,12.33,12.33,0,0,1-3.45,4.28,15.62,15.62,0,0,1-5.34,2.7A24.32,24.32,0,0,1,750.73,504.56Z"/><path class="cls-1" d="M785.65,504.5q-5.19,0-8.09-2.46t-2.89-8.28v-13.2h-3.84v-9.18h3.84v-8.22h11.46v8.22h7.56v9.18h-7.56v11a3.35,3.35,0,0,0,.78,2.49,3.26,3.26,0,0,0,2.34.75,8.26,8.26,0,0,0,2.22-.3,13.26,13.26,0,0,0,2.1-.78v8.93A15.25,15.25,0,0,1,790,504,18,18,0,0,1,785.65,504.5Z"/><path class="cls-1" d="M809.41,504.56q-5.25,0-8.18-3.18t-2.92-8.76V471.38h11.46V489A5.91,5.91,0,0,0,811,493a4.26,4.26,0,0,0,3.32,1.38,4.43,4.43,0,0,0,3.34-1.38A5.65,5.65,0,0,0,819,489V471.38h11.46v32.46H819V499.4a16,16,0,0,1-3.85,3.6A10.05,10.05,0,0,1,809.41,504.56Z"/><path class="cls-1" d="M849.73,504.56a13.13,13.13,0,0,1-5.49-1.18,13.4,13.4,0,0,1-4.56-3.32,16.34,16.34,0,0,1-3.12-5.28,19.88,19.88,0,0,1-1.17-7v-.13a21,21,0,0,1,1.13-7.1,15.85,15.85,0,0,1,3.12-5.34,13.64,13.64,0,0,1,4.55-3.36,13,13,0,0,1,5.44-1.17,11.45,11.45,0,0,1,6,1.41,16.6,16.6,0,0,1,4,3.27V460H871v43.8H859.57l.06-4.32a17.68,17.68,0,0,1-4,3.54A10.72,10.72,0,0,1,849.73,504.56Zm3.45-9.54a6.2,6.2,0,0,0,2.57-.54,6.38,6.38,0,0,0,2.09-1.53,7.4,7.4,0,0,0,1.4-2.34,8.36,8.36,0,0,0,.51-3v-.11a8.1,8.1,0,0,0-.51-2.94,7.36,7.36,0,0,0-1.4-2.31,6.19,6.19,0,0,0-4.66-2.07,6.17,6.17,0,0,0-2.57.54,6.33,6.33,0,0,0-2.09,1.5,7.3,7.3,0,0,0-1.44,2.31,8.13,8.13,0,0,0-.53,3v.11a8.14,8.14,0,0,0,.53,3,7.68,7.68,0,0,0,1.44,2.34,6.28,6.28,0,0,0,2.09,1.53A6.17,6.17,0,0,0,853.18,495Z"/><path class="cls-1" d="M893.23,504.62a19.31,19.31,0,0,1-7-1.24,16.38,16.38,0,0,1-5.49-3.41,15.23,15.23,0,0,1-3.6-5.31,17.89,17.89,0,0,1-1.29-6.9v-.13A18.14,18.14,0,0,1,877,481a16.37,16.37,0,0,1,3.39-5.4,15.88,15.88,0,0,1,5.19-3.63,16.21,16.21,0,0,1,6.6-1.32,17.12,17.12,0,0,1,7.29,1.43,14.41,14.41,0,0,1,5.1,3.88,16.26,16.26,0,0,1,3,5.64,23,23,0,0,1,1,6.81v1.14q0,.6-.06,1.2H886.81a6.69,6.69,0,0,0,2.49,4,7.54,7.54,0,0,0,4.53,1.31,8.92,8.92,0,0,0,3.75-.77A12.09,12.09,0,0,0,901,492.8l6.3,5.22a17.53,17.53,0,0,1-5.79,4.8A17.77,17.77,0,0,1,893.23,504.62Zm4.68-19.68a7.19,7.19,0,0,0-1.8-4.29,5,5,0,0,0-3.84-1.59,4.79,4.79,0,0,0-3.72,1.59,8.4,8.4,0,0,0-1.92,4.29Z"/><path class="cls-1" d="M913.45,471.38h11.46v4.56a18.45,18.45,0,0,1,1.72-2,11,11,0,0,1,2.13-1.68,11.91,11.91,0,0,1,2.61-1.17,10.31,10.31,0,0,1,3.14-.45q5.25,0,8.17,3.18t2.93,8.75v21.25H934.15V486.26a6,6,0,0,0-1.25-4.09,4.2,4.2,0,0,0-3.26-1.37,4.55,4.55,0,0,0-3.4,1.37,5.69,5.69,0,0,0-1.33,4.09v17.58H913.45Z"/><path class="cls-1" d="M964.44,504.5q-5.19,0-8.08-2.46t-2.89-8.28v-13.2h-3.84v-9.18h3.84v-8.22h11.46v8.22h7.56v9.18h-7.56v11a3.35,3.35,0,0,0,.78,2.49,3.24,3.24,0,0,0,2.34.75,8.31,8.31,0,0,0,2.22-.3,13.26,13.26,0,0,0,2.1-.78v8.93a15.25,15.25,0,0,1-3.54,1.36A18.12,18.12,0,0,1,964.44,504.5Z"/><path class="cls-1" d="M990.25,504.56a27.5,27.5,0,0,1-8-1.18,24.29,24.29,0,0,1-7.32-3.62l4.26-6.9a23.29,23.29,0,0,0,5.73,2.79,17.9,17.9,0,0,0,5.43.93q2.88,0,2.88-1.74v-.12q0-1-1.32-1.5A38,38,0,0,0,988,492a38.34,38.34,0,0,1-4.5-1.41,15.5,15.5,0,0,1-3.66-2,8.12,8.12,0,0,1-3.36-7v-.12a10.26,10.26,0,0,1,1-4.59,9.51,9.51,0,0,1,2.73-3.36,12.61,12.61,0,0,1,4.11-2.07,17.79,17.79,0,0,1,5.19-.72,25.75,25.75,0,0,1,7.08,1,23.67,23.67,0,0,1,6.3,2.79l-3.9,7.2a28.2,28.2,0,0,0-5.1-2.19,15.34,15.34,0,0,0-4.5-.81,3.45,3.45,0,0,0-2,.45,1.32,1.32,0,0,0-.66,1.11v.12q0,1,1.35,1.53t3.93,1.35q2.4.66,4.5,1.47a14.81,14.81,0,0,1,3.66,2,8.61,8.61,0,0,1,2.46,2.85,8.4,8.4,0,0,1,.9,4v.12a10.82,10.82,0,0,1-1,4.71,9.49,9.49,0,0,1-2.7,3.39,11.8,11.8,0,0,1-4.2,2.07A20.35,20.35,0,0,1,990.25,504.56Z"/><path class="cls-2" d="M94,545.26H58.35L110.43,422h32.68L195.2,545.26H158.84m0,0-32.33-82.85L94,545.26Z"/><path class="cls-3" d="M94,545.26H58.35L110.43,422h32.68L195.2,545.26H158.84m0,0-32.33-82.85L94,545.26Z"/><path class="cls-4" d="M158.6,520.61l61.35-69H160.7V422.91H266.79v24.65l-61.35,69h61.35v28.67H158.6Z"/></g></svg>